<svg xmlns="http://www.w3.org/2000/svg" viewBox="0 0 495 404" xmlns:xlink="http://www.w3.org/1999/xlink" width="495" height="404"><defs/><g transform="translate(-46.85,-64.76)"><g id="shape1" transform="translate(47.850000,99.213000)"><path fill-rule="nonzero" stroke="#ffffff" fill="#00b050" stroke-width="1" d="M120.0,76.0C126.6,76.0,132.0,70.6,132.0,64.0L132.0,12.0C132.0,5.4,126.6,.0,120.0,.0L12.0,.0C5.4,.0,.0,5.4,.0,12.0L.0,64.0C.0,70.6,5.4,76.0,12.0,76.0L120.0,76.0z"/><text xml:space="preserve" style="fill:#ffffff;font-family:Arial,PingFang SC,Mircrosoft YaHei,Arial;font-size:12.00pt"><tspan textLength="74.0" x="31.0" y="27.0">Beginning </tspan><tspan textLength="57.0" x="37.5" y="46.0">Balance</tspan><tspan textLength="65.0" x="33.5" y="62.0" style="font-size:10.00pt;font-style:italic">[BOY BAL]</tspan></text></g><g id="shape2" transform="translate(190.922000,99.213000)"><path fill-rule="nonzero" stroke="#ffffff" fill="#00b050" stroke-width="1" d="M120.0,76.0C126.6,76.0,132.0,70.6,132.0,64.0L132.0,12.0C132.0,5.4,126.6,.0,120.0,.0L12.0,.0C5.4,.0,.0,5.4,.0,12.0L.0,64.0C.0,70.6,5.4,76.0,12.0,76.0L120.0,76.0z"/><text xml:space="preserve" style="fill:#ffffff;font-family:Arial,PingFang SC,Mircrosoft YaHei,Arial;font-size:10.00pt;font-style:italic"><tspan textLength="69.0" x="31.5" y="36.5" style="font-size:12.00pt;font-style:normal">Expenses</tspan><tspan textLength="97.0" x="17.5" y="52.5">[BOY Expenses]</tspan></text></g><g id="shape3" transform="translate(55.213000,236.220000)"><path fill-rule="nonzero" stroke="#ffffff" fill="#00ca5b" stroke-width="1" d="M120.0,76.0C126.6,76.0,132.0,70.6,132.0,64.0L132.0,12.0C132.0,5.4,126.6,.0,120.0,.0L12.0,.0C5.4,.0,.0,5.4,.0,12.0L.0,64.0C.0,70.6,5.4,76.0,12.0,76.0L120.0,76.0z"/><text xml:space="preserve" style="fill:#ffffff;font-family:Arial,PingFang SC,Mircrosoft YaHei,Arial;font-size:10.00pt;font-style:italic"><tspan textLength="97.0" x="19.5" y="19.0" style="font-size:12.00pt;font-style:normal">Balance After </tspan><tspan textLength="69.0" x="31.5" y="38.0" style="font-size:12.00pt;font-style:normal">Expenses</tspan><tspan textLength="112.0" x="12.0" y="54.0">[BOY BAL AFTER </tspan><tspan textLength="76.0" x="28.0" y="70.0">EXPENSES]</tspan></text></g><g id="shape4" transform="translate(206.394000,236.220000)"><path fill-rule="nonzero" stroke="#ffffff" fill="#00ca5b" stroke-width="1" d="M120.0,76.0C126.6,76.0,132.0,70.6,132.0,64.0L132.0,12.0C132.0,5.4,126.6,.0,120.0,.0L12.0,.0C5.4,.0,.0,5.4,.0,12.0L.0,64.0C.0,70.6,5.4,76.0,12.0,76.0L120.0,76.0z"/><text xml:space="preserve" style="fill:#ffffff;font-family:Arial,PingFang SC,Mircrosoft YaHei,Arial;font-size:10.00pt;font-style:italic"><tspan textLength="77.0" x="29.5" y="27.0" style="font-size:12.00pt;font-style:normal">Investment </tspan><tspan textLength="45.0" x="43.5" y="46.0" style="font-size:12.00pt;font-style:normal">Return</tspan><tspan textLength="28.0" x="52.0" y="62.0">[P/L]</tspan></text></g><g id="shape5" transform="translate(357.575000,236.220000)"><path fill-rule="nonzero" stroke="#ffffff" fill="#00ca5b" stroke-width="1" d="M120.0,76.0C126.6,76.0,132.0,70.6,132.0,64.0L132.0,12.0C132.0,5.4,126.6,.0,120.0,.0L12.0,.0C5.4,.0,.0,5.4,.0,12.0L.0,64.0C.0,70.6,5.4,76.0,12.0,76.0L120.0,76.0z"/><text xml:space="preserve" style="fill:#ffffff;font-family:Arial,PingFang SC,Mircrosoft YaHei,Arial;font-size:10.00pt;font-style:italic"><tspan textLength="50.0" x="41.0" y="36.5" style="font-size:12.00pt;font-style:normal">Income</tspan><tspan textLength="51.0" x="40.5" y="52.5">[Income]</tspan></text></g><g id="shape6" transform="translate(165.638000,392.126000)"><path fill-rule="nonzero" stroke="#ffffff" fill="#6cdf1f" stroke-width="1" d="M120.0,76.0C126.6,76.0,132.0,70.6,132.0,64.0L132.0,12.0C132.0,5.4,126.6,.0,120.0,.0L12.0,.0C5.4,.0,.0,5.4,.0,12.0L.0,64.0C.0,70.6,5.4,76.0,12.0,76.0L120.0,76.0z"/><text xml:space="preserve" style="fill:#ffffff;font-family:Arial,PingFang SC,Mircrosoft YaHei,Arial;font-size:10.00pt;font-style:italic"><tspan textLength="110.0" x="11.0" y="36.5" style="font-size:12.00pt;font-style:normal">Ending Balance</tspan><tspan textLength="65.0" x="33.5" y="52.5">[EOY BAL]</tspan></text></g><g id="shape7" transform="translate(113.850000,175.213000)"><path stroke="#00b050" fill="none" stroke-width="6.6666698455810547" d="M.0,.0L.0,32.8L7.4,32.8L7.4,45.5"/><path stroke="#00b050" fill="#00b050" stroke-width="1" d="M15.1,45.5L7.4,61.0L-0.4,45.5L15.1,45.5" stroke-linecap="round"/></g><g id="shape8" transform="translate(256.922000,175.213000)"><path stroke="#00b050" fill="none" stroke-width="6.6666698455810547" d="M.0,.0L.0,27.9L-135.7,27.9L-135.7,45.5"/><path stroke="#00b050" fill="#00b050" stroke-width="1" d="M-128.0,45.5L-135.7,61.0L-143.5,45.5L-128.0,45.5" stroke-linecap="round"/><rect x="-85.9" y="19.9" width="69.0" fill="#ffffff" height="16.0"/><text xml:space="preserve" style="fill:#ff0000;font-family:Arial,PingFang SC,Mircrosoft YaHei,Arial;font-size:10.00pt"><tspan textLength="69.0" x="-85.9" y="32.9">set aside (-)</tspan></text></g><g id="shape9" transform="translate(423.575000,312.220000)"><path stroke="#00b050" fill="none" stroke-width="6.6666698455810547" d="M.0,.0L.0,42.1L-191.9,42.1L-191.9,64.4"/><path stroke="#00b050" fill="#00b050" stroke-width="1" d="M-184.2,64.4L-191.9,79.9L-199.7,64.4L-184.2,64.4" stroke-linecap="round"/></g><g id="shape10" transform="translate(272.394000,312.220000)"><path stroke="#00b050" fill="none" stroke-width="6.6666698455810547" d="M.0,.0L-4.9,.0L-4.9,42.1L-40.8,42.1L-40.8,64.4"/><path stroke="#00b050" fill="#00b050" stroke-width="1" d="M-33.0,64.4L-40.8,79.9L-48.5,64.4L-33.0,64.4" stroke-linecap="round"/></g><g id="shape11" transform="translate(187.213000,274.220000)"><path stroke="#303030" stroke-dasharray="4,10" fill="none" stroke-width="2" d="M.0,.0L10.7,.0"/><path stroke="#303030" fill="#303030" stroke-width="1" d="M10.7,-4.2L19.2,.0L10.7,4.2L10.7,-4.2" stroke-linecap="round"/></g><g id="shape12" transform="translate(121.213000,312.220000)"><path stroke="#00b050" fill="none" stroke-width="6.6666698455810547" d="M.0,.0L-4.6,.0L-4.6,42.1L110.4,42.1L110.4,64.4"/><path stroke="#00b050" fill="#00b050" stroke-width="1" d="M118.2,64.4L110.4,79.9L102.7,64.4L118.2,64.4" stroke-linecap="round"/></g><g id="shape13" transform="translate(297.638000,430.126000)"><path stroke="#303030" fill="none" stroke-width="2" d="M.0,.0L222.0,.0L222.0,-359.1L-183.8,-359.1L-183.8,-339.4"/><path stroke="#303030" fill="#303030" stroke-width="1" d="M-179.5,-339.4L-183.8,-330.9L-188.0,-339.4L-179.5,-339.4" stroke-linecap="round"/><rect x="206.0" y="-175.1" width="34.0" fill="#ffffff" height="16.0"/><rect x="214.0" y="-159.1" width="18.0" fill="#ffffff" height="16.0"/><rect x="208.0" y="-143.1" width="30.0" fill="#ffffff" height="16.0"/><rect x="210.0" y="-127.1" width="26.0" fill="#ffffff" height="16.0"/><text xml:space="preserve" style="fill:#454545;font-family:Arial,PingFang SC,Mircrosoft YaHei,Arial;font-size:10.00pt;font-style:italic"><tspan textLength="34.0" x="206.0" y="-162.1">Bring </tspan><tspan textLength="18.0" x="214.0" y="-146.1">To </tspan><tspan textLength="30.0" x="208.0" y="-130.1">Next </tspan><tspan textLength="26.0" x="210.0" y="-114.1">Year</tspan></text></g><g id="shape14" transform="translate(159.775697,99.213000)"><path fill-rule="nonzero" stroke="#ffffff" fill="#3eb9fe" stroke-width="1" d="M.0,10.0C.0,4.5,4.5,.0,10.0,.0C15.6,.0,20.1,4.5,20.1,10.0C20.1,15.6,15.6,20.1,10.0,20.1C4.5,20.1,.0,15.6,.0,10.0z"/><text xml:space="preserve" style="fill:#ffffff;font-family:Arial,PingFang SC,Mircrosoft YaHei,Arial;font-size:8.00pt"><tspan textLength="7.0" x="6.5" y="14.0">D</tspan></text></g><g id="shape15" transform="translate(302.847700,99.213003)"><path fill-rule="nonzero" stroke="#ffffff" fill="#3eb9fe" stroke-width="1" d="M.0,10.0C.0,4.5,4.5,.0,10.0,.0C15.6,.0,20.1,4.5,20.1,10.0C20.1,15.6,15.6,20.1,10.0,20.1C4.5,20.1,.0,15.6,.0,10.0z"/><text xml:space="preserve" style="fill:#ffffff;font-family:Arial,PingFang SC,Mircrosoft YaHei,Arial;font-size:8.00pt"><tspan textLength="6.0" x="7.0" y="14.0">E</tspan></text></g><g id="shape16" transform="translate(167.138700,236.220000)"><path fill-rule="nonzero" stroke="#ffffff" fill="#3eb9fe" stroke-width="1" d="M.0,10.0C.0,4.5,4.5,.0,10.0,.0C15.6,.0,20.1,4.5,20.1,10.0C20.1,15.6,15.6,20.1,10.0,20.1C4.5,20.1,.0,15.6,.0,10.0z"/><text xml:space="preserve" style="fill:#ffffff;font-family:Arial,PingFang SC,Mircrosoft YaHei,Arial;font-size:8.00pt"><tspan textLength="6.0" x="7.0" y="14.0">F</tspan></text></g><g id="shape17" transform="translate(318.319700,236.220000)"><path fill-rule="nonzero" stroke="#ffffff" fill="#3eb9fe" stroke-width="1" d="M.0,10.0C.0,4.5,4.5,.0,10.0,.0C15.6,.0,20.1,4.5,20.1,10.0C20.1,15.6,15.6,20.1,10.0,20.1C4.5,20.1,.0,15.6,.0,10.0z"/><text xml:space="preserve" style="fill:#ffffff;font-family:Arial,PingFang SC,Mircrosoft YaHei,Arial;font-size:8.00pt"><tspan textLength="8.0" x="6.0" y="14.0">G</tspan></text></g><g id="shape18" transform="translate(469.500700,236.220000)"><path fill-rule="nonzero" stroke="#ffffff" fill="#3eb9fe" stroke-width="1" d="M.0,10.0C.0,4.5,4.5,.0,10.0,.0C15.6,.0,20.1,4.5,20.1,10.0C20.1,15.6,15.6,20.1,10.0,20.1C4.5,20.1,.0,15.6,.0,10.0z"/><text xml:space="preserve" style="fill:#ffffff;font-family:Arial,PingFang SC,Mircrosoft YaHei,Arial;font-size:8.00pt"><tspan textLength="7.0" x="6.5" y="14.0">H</tspan></text></g><g id="shape19" transform="translate(277.563700,392.126000)"><path fill-rule="nonzero" stroke="#ffffff" fill="#3eb9fe" stroke-width="1" d="M.0,10.0C.0,4.5,4.5,.0,10.0,.0C15.6,.0,20.1,4.5,20.1,10.0C20.1,15.6,15.6,20.1,10.0,20.1C4.5,20.1,.0,15.6,.0,10.0z"/><text xml:space="preserve" style="fill:#ffffff;font-family:Arial,PingFang SC,Mircrosoft YaHei,Arial;font-size:8.00pt"><tspan textLength="2.0" x="9.0" y="14.0">I</tspan></text></g></g></svg>